<?xml version="1.0" encoding="UTF-8" standalone="no"?>
<!DOCTYPE svg PUBLIC "-//W3C//DTD SVG 1.1//EN"
 "http://www.w3.org/Graphics/SVG/1.1/DTD/svg11.dtd">
<!-- Generated by graphviz version 14.1.1 (20251213.1925)
 -->
<!-- Title: bmm150_interrupt_deinit Pages: 1 -->
<svg width="268pt" height="66pt"
 viewBox="0.00 0.00 268.00 66.00" xmlns="http://www.w3.org/2000/svg" xmlns:xlink="http://www.w3.org/1999/xlink">
<g id="graph0" class="graph" transform="scale(1 1) rotate(0) translate(4 62)">
<title>bmm150_interrupt_deinit</title>
<!-- Node1 -->
<g id="Node000001" class="node">
<title>Node1</title>
<g id="a_Node000001"><a xlink:title="interrupt example deinit">
<polygon fill="#999999" stroke="#666666" points="122.5,-39 0,-39 0,-19 122.5,-19 122.5,-39"/>
<text xml:space="preserve" text-anchor="middle" x="61.25" y="-25.5" font-family="Helvetica,sans-Serif" font-size="10.00">bmm150_interrupt_deinit</text>
</a>
</g>
</g>
<!-- Node2 -->
<g id="Node000002" class="node">
<title>Node2</title>
<g id="a_Node000002"><a xlink:href="group__bmm150__basic__driver.html#ga1218d356da97a52ec15ba706220ba2c1" target="_top" xlink:title="close the chip">
<polygon fill="white" stroke="#666666" points="250.25,-58 168.25,-58 168.25,-38 250.25,-38 250.25,-58"/>
<text xml:space="preserve" text-anchor="middle" x="209.25" y="-44.5" font-family="Helvetica,sans-Serif" font-size="10.00">bmm150_deinit</text>
</a>
</g>
</g>
<!-- Node1&#45;&gt;Node2 -->
<g id="edge1_Node000001_Node000002" class="edge">
<title>Node1&#45;&gt;Node2</title>
<g id="a_edge1_Node000001_Node000002"><a xlink:title=" ">
<path fill="none" stroke="#63b8ff" d="M122.9,-36.89C134.18,-38.36 145.87,-39.88 156.84,-41.31"/>
<polygon fill="#63b8ff" stroke="#63b8ff" points="156.09,-44.74 166.46,-42.56 157,-37.8 156.09,-44.74"/>
</a>
</g>
</g>
<!-- Node3 -->
<g id="Node000003" class="node">
<title>Node3</title>
<g id="a_Node000003"><a xlink:href="group__bmm150__basic__driver.html#ga8daaffec7271d9c4300f52822746f77b" target="_top" xlink:title="set mode">
<polygon fill="white" stroke="#666666" points="260,-20 158.5,-20 158.5,0 260,0 260,-20"/>
<text xml:space="preserve" text-anchor="middle" x="209.25" y="-6.5" font-family="Helvetica,sans-Serif" font-size="10.00">bmm150_set_mode</text>
</a>
</g>
</g>
<!-- Node1&#45;&gt;Node3 -->
<g id="edge2_Node000001_Node000003" class="edge">
<title>Node1&#45;&gt;Node3</title>
<g id="a_edge2_Node000001_Node000003"><a xlink:title=" ">
<path fill="none" stroke="#63b8ff" d="M122.9,-21.11C130.79,-20.08 138.89,-19.03 146.8,-18"/>
<polygon fill="#63b8ff" stroke="#63b8ff" points="147.24,-21.47 156.71,-16.71 146.34,-14.53 147.24,-21.47"/>
</a>
</g>
</g>
</g>
</svg>
